<svg xmlns="http://www.w3.org/2000/svg" viewBox="0 0 500 600" fill="none">
  <!-- India mainland outline -->
  <path
    d="
      M 108,52
      L 116,42 L 125,35 L 138,30 L 152,26 L 162,22 L 175,18 L 188,16
      L 200,18 L 210,14 L 222,10 L 236,8  L 248,12 L 258,10 L 270,8
      L 280,14 L 290,18 L 298,14 L 308,10 L 320,12 L 330,18 L 340,16
      L 350,20 L 358,28 L 368,34 L 378,30 L 388,26 L 398,32 L 406,40
      L 412,48 L 418,56 L 412,66 L 404,72 L 394,76 L 384,80
      L 390,92 L 396,106 L 400,120 L 404,134 L 406,148 L 402,162
      L 398,174 L 404,184 L 412,194 L 418,208 L 422,222 L 424,236
      L 422,250 L 416,262 L 408,274 L 400,286 L 390,298 L 380,310
      L 368,322 L 356,334 L 342,344 L 328,354 L 314,364 L 300,374
      L 286,382 L 272,392 L 258,402 L 246,414 L 236,428 L 228,442
      L 220,456 L 214,472 L 210,488 L 206,504 L 202,520 L 198,538
      L 194,520 L 190,504 L 184,488 L 178,472 L 170,458 L 160,444
      L 150,430 L 138,418 L 126,406 L 114,396 L 102,386 L 92,374
      L 82,362 L 72,350 L 64,336 L 56,322 L 50,307 L 46,292
      L 42,276 L 40,260 L 40,244 L 42,228 L 46,212 L 50,198
      L 54,184 L 58,170 L 62,156 L 64,142 L 62,128 L 58,116
      L 52,104 L 48,92  L 52,80  L 60,70  L 70,62  L 80,56
      L 92,52 L 108,52 Z
    "
    fill="rgba(255,255,255,0.15)"
    stroke="rgba(255,255,255,0.9)"
    stroke-width="1.5"
    stroke-linejoin="round"
    stroke-linecap="round"
  />

  <!-- J&K / Ladakh extension (top left bulge) -->
  <path
    d="
      M 108,52 L 100,44 L 92,36 L 86,28 L 94,22 L 106,18
      L 118,16 L 128,20 L 138,30
    "
    fill="rgba(255,255,255,0.12)"
    stroke="rgba(255,255,255,0.85)"
    stroke-width="1.2"
    stroke-linejoin="round"
  />

  <!-- Northeast extension (Assam, Arunachal, Meghalaya etc.) -->
  <path
    d="
      M 384,80 L 394,76 L 404,72 L 412,66 L 420,72 L 428,80
      L 432,90 L 430,100 L 422,108 L 414,114 L 404,118
      L 396,112 L 390,104 L 390,92 Z
    "
    fill="rgba(255,255,255,0.12)"
    stroke="rgba(255,255,255,0.8)"
    stroke-width="1.2"
    stroke-linejoin="round"
  />

  <!-- Gujarat Saurashtra peninsula -->
  <path
    d="
      M 62,220 L 54,214 L 46,208 L 40,200 L 38,190 L 42,182
      L 50,176 L 60,172 L 70,176 L 78,184 L 80,194 L 76,204
      L 70,212 L 64,218 Z
    "
    fill="rgba(255,255,255,0.10)"
    stroke="rgba(255,255,255,0.7)"
    stroke-width="1"
    stroke-linejoin="round"
  />

  <!-- Andaman & Nicobar Islands (right side) -->
  <ellipse cx="458" cy="380" rx="6" ry="14"
    fill="rgba(255,255,255,0.10)"
    stroke="rgba(255,255,255,0.6)"
    stroke-width="1"
  />
  <ellipse cx="460" cy="400" rx="4" ry="8"
    fill="rgba(255,255,255,0.08)"
    stroke="rgba(255,255,255,0.5)"
    stroke-width="1"
  />
  <ellipse cx="462" cy="416" rx="3" ry="6"
    fill="rgba(255,255,255,0.08)"
    stroke="rgba(255,255,255,0.5)"
    stroke-width="1"
  />

  <!-- Sri Lanka (approximate, below tip) -->
  <ellipse cx="210" cy="566" rx="12" ry="18"
    fill="rgba(255,255,255,0.06)"
    stroke="rgba(255,255,255,0.35)"
    stroke-width="0.8"
    stroke-dasharray="3,3"
  />

  <!-- State boundary lines (subtle internal grid feel) -->
  <!-- North-South rough dividers -->
  <line x1="200" y1="60"  x2="200" y2="200" stroke="rgba(255,255,255,0.06)" stroke-width="0.8"/>
  <line x1="250" y1="60"  x2="250" y2="180" stroke="rgba(255,255,255,0.06)" stroke-width="0.8"/>
  <line x1="300" y1="80"  x2="310" y2="220" stroke="rgba(255,255,255,0.06)" stroke-width="0.8"/>
  <!-- East-West rough dividers -->
  <line x1="80"  y1="160" x2="400" y2="160" stroke="rgba(255,255,255,0.05)" stroke-width="0.8"/>
  <line x1="70"  y1="240" x2="400" y2="240" stroke="rgba(255,255,255,0.05)" stroke-width="0.8"/>
  <line x1="80"  y1="320" x2="380" y2="320" stroke="rgba(255,255,255,0.05)" stroke-width="0.8"/>
</svg>
